<?xml version="1.0" standalone="no"?>
<!DOCTYPE svg PUBLIC "-//W3C//DTD SVG 20010904//EN"
 "http://www.w3.org/TR/2001/REC-SVG-20010904/DTD/svg10.dtd">
<svg version="1.0" xmlns="http://www.w3.org/2000/svg"
 width="326.000000pt" height="326.000000pt" viewBox="0 0 326.000000 326.000000"
 preserveAspectRatio="xMidYMid meet">
<metadata>
Created by potrace 1.11, written by Peter Selinger 2001-2013
</metadata>
<g transform="translate(0.000000,326.000000) scale(0.100000,-0.100000)"
fill="#000000" stroke="none">
<path d="M1465 3239 c-201 -19 -369 -69 -570 -169 -466 -231 -790 -676 -873
-1200 -74 -462 66 -946 380 -1310 223 -258 547 -450 881 -520 193 -41 404 -48
587 -18 527 84 966 404 1200 873 108 217 150 366 171 601 18 206 -10 441 -76
641 -38 116 -144 326 -216 428 -82 115 -269 302 -384 384 -107 75 -315 179
-440 220 -212 68 -437 92 -660 70z m955 -359 c60 -42 19 -89 -51 -59 -34 13
-59 45 -59 73 0 16 5 18 40 13 21 -3 53 -15 70 -27z m57 -738 c21 -14 26 -60
9 -87 -19 -29 -51 -32 -78 -8 -20 18 -24 73 -6 91 13 13 57 16 75 4z m-1394
-133 c66 -30 85 -161 34 -237 -64 -97 -210 -111 -247 -22 -20 48 -9 141 23
189 44 67 129 98 190 70z m2025 -106 c45 -28 66 -96 70 -226 11 -335 -107
-638 -343 -872 -103 -104 -172 -144 -334 -195 -98 -31 -170 -72 -194 -111 -5
-9 -7 -28 -3 -43 9 -37 74 -65 173 -74 l78 -7 -98 -64 c-167 -108 -317 -169
-517 -212 -90 -20 -135 -23 -315 -24 -225 0 -289 9 -460 62 -80 25 -238 93
-232 99 2 2 39 -4 83 -13 54 -11 133 -16 249 -17 148 0 178 2 233 21 116 39
173 97 157 160 -8 33 -24 56 -145 208 -255 320 -301 424 -287 645 25 386 267
608 614 562 178 -24 295 -111 388 -293 98 -192 97 -191 236 -26 57 67 142 162
189 211 188 195 358 273 458 209z m-2982 -325 c8 -43 7 -106 -3 -121 -10 -16
-31 14 -37 54 -14 90 24 153 40 67z m125 -258 c50 -27 83 -170 48 -206 -42
-41 -112 47 -112 140 0 75 16 91 64 66z m636 -322 c22 -21 30 -59 17 -92 -10
-26 -79 -21 -98 6 -19 27 -21 79 -4 96 19 19 59 14 85 -10z"/>
</g>
</svg>
