<svg id="Layer_1" data-name="Layer 1" xmlns="http://www.w3.org/2000/svg" viewBox="0 0 266.8 266.9"><defs><style>.cls-1{fill:#f7eedf;}</style></defs><title>Facebook_Icon_Spacehack</title><path id="White" class="cls-1" d="M1414.7,730.6H1177.3a14.72,14.72,0,0,0-14.7,14.7V982.7a14.72,14.72,0,0,0,14.7,14.7h127.8V894.1h-34.8V853.8h34.8V824.1c0-34.5,21.1-53.2,51.8-53.2a282.74,282.74,0,0,1,31.1,1.6v36h-21.3c-16.7,0-20,7.9-20,19.6v25.7h39.9l-5.2,40.3h-34.7V997.5h68a14.72,14.72,0,0,0,14.7-14.7V745.3A14.6,14.6,0,0,0,1414.7,730.6Z" transform="translate(-1162.6 -730.6)"/></svg>