<svg id="Layer_1" data-name="Layer 1" xmlns="http://www.w3.org/2000/svg" viewBox="0 0 266.9 269.76"><defs><style>.cls-1{fill:#f7eedf;}</style></defs><title>Link_Icon_Spacehack</title><path class="cls-1" d="M1432.4,791.4c-0.4,13.9-6,25.5-15.5,35.2q-32.85,33.3-66.1,66.1c-8.6,8.5-18.9,14.4-31.2,16.2-13.1,1.9-24.9-1.8-35.5-9.4a76.82,76.82,0,0,1-7.7-6.4c-3.5-3.1-3.8-7.5-.9-10.6s7.3-3.1,10.7.1a44.18,44.18,0,0,0,17.2,10.7c11,3.4,21.1,1,30.3-5.4a69.48,69.48,0,0,0,9.4-7.8c20.6-20.4,41.1-41,61.5-61.5,6.2-6.2,11-13.3,12.5-22.3a32.69,32.69,0,0,0-1.5-16.7,57,57,0,0,0-26.4-31.1c-14.9-8.3-30.2-6-42.7,6.3Q1326,775,1305.6,795.6c-2.4,2.4-5,3.2-8.2,2.1a7,7,0,0,1-2.8-11.3c2.8-3.2,5.9-6.1,8.9-9.1,10.8-10.8,21.6-21.8,32.6-32.4,9.5-9.2,20.8-14.8,34.3-15.5a45.51,45.51,0,0,1,26.9,7c16.5,10.3,28.2,24.5,33.3,43.5C1431.7,783.6,1431.9,787.6,1432.4,791.4Z" transform="translate(-1165.5 -729.34)"/><path class="cls-1" d="M1292.4,931.5l10.6,10.6a11.5,11.5,0,0,0-.8,1c-13.6,13.6-27.1,27.3-40.9,40.7-10.6,10.3-23.2,16.1-38.3,15.2a48.19,48.19,0,0,1-22.2-6.9,72.85,72.85,0,0,1-29.5-31.7c-10.1-20.7-7-41.7,9.2-58.3,21.9-22.5,44.2-44.6,66.7-66.6a56.5,56.5,0,0,1,31.9-15.9c14.6-2.1,27.3,2.4,38.4,11.7a60.16,60.16,0,0,1,4.6,4.2,7.19,7.19,0,0,1,.2,10.3,7,7,0,0,1-10.1,0c-5.2-4.9-10.9-9-17.9-11.1-10.2-3-19.8-1.1-28.6,4.6a72.85,72.85,0,0,0-11.4,9.2q-30.45,30.15-60.5,60.4c-4.3,4.3-8.2,9-10.7,14.6a32.6,32.6,0,0,0-.8,25.8,57.85,57.85,0,0,0,27,31c13.8,7.5,28.3,5.5,40.6-5.5,4.8-4.3,9.3-9,13.9-13.6,9.2-9.1,18.3-18.3,27.4-27.4C1291.7,933.1,1292,932.1,1292.4,931.5Z" transform="translate(-1165.5 -729.34)"/></svg>