<svg id="Layer_1" data-name="Layer 1" xmlns="http://www.w3.org/2000/svg" viewBox="0 0 273.3 222.3"><defs><style>.cls-1{fill:#f7eedf;}</style></defs><title>Twitter_Icon_Spacehack</title><path class="cls-1" d="M340.7,115.2a109.77,109.77,0,0,1-32.2,8.8,56.07,56.07,0,0,0,24.7-31,111.92,111.92,0,0,1-35.6,13.6,56.1,56.1,0,0,0-97,38.4,54,54,0,0,0,1.5,12.8A159.29,159.29,0,0,1,86.5,99.2a56.12,56.12,0,0,0,17.4,74.9,56.06,56.06,0,0,1-25.4-7v0.7a56.11,56.11,0,0,0,45,55,55.65,55.65,0,0,1-14.8,2,62.39,62.39,0,0,1-10.6-1,56.24,56.24,0,0,0,52.4,39,112.87,112.87,0,0,1-69.7,24,119,119,0,0,1-13.4-.8,158.83,158.83,0,0,0,86,25.2c103.2,0,159.6-85.5,159.6-159.6,0-2.4-.1-4.9-0.2-7.3A113.59,113.59,0,0,0,340.7,115.2Z" transform="translate(-67.4 -88.9)"/></svg>